<svg width="24" height="25" viewBox="0 0 24 25" fill="none" xmlns="http://www.w3.org/2000/svg">
<path fill-rule="evenodd" clip-rule="evenodd" d="M12 2.52832C6.47 2.52832 2 6.99832 2 12.5283C2 18.0583 6.47 22.5283 12 22.5283C17.53 22.5283 22 18.0583 22 12.5283C22 6.99832 17.53 2.52832 12 2.52832ZM12 20.5283C7.59 20.5283 4 16.9383 4 12.5283C4 8.11832 7.59 4.52832 12 4.52832C16.41 4.52832 20 8.11832 20 12.5283C20 16.9383 16.41 20.5283 12 20.5283ZM12 11.1183L15.59 7.52832L17 8.93832L13.41 12.5283L17 16.1183L15.59 17.5283L12 13.9383L8.41 17.5283L7 16.1183L10.59 12.5283L7 8.93832L8.41 7.52832L12 11.1183Z" fill="#9E9E9E"/>
</svg>
